<svg width="295" height="475" viewBox="0 0 295 475" fill="none" xmlns="http://www.w3.org/2000/svg">
<path opacity="0.2" d="M184.74 326.554H98.3275C98.3275 307.634 99.7093 291.16 102.473 277.13C105.449 262.887 110.338 250.132 117.141 238.866C123.943 227.387 133.084 216.439 144.563 206.023C154.554 197.307 163.27 189.123 170.71 181.47C178.15 173.605 183.89 165.527 187.929 157.236C191.968 148.946 193.987 139.911 193.987 130.133C193.987 118.441 192.18 108.875 188.567 101.435C185.165 93.7819 180.063 88.0423 173.261 84.2159C166.671 80.1769 158.381 78.1574 148.389 78.1574C140.099 78.1574 132.34 80.0706 125.112 83.897C117.885 87.5108 112.039 93.2504 107.575 101.116C103.111 108.981 100.666 119.291 100.241 132.046H0.116897C0.754629 101.647 7.66339 76.7757 20.8432 57.4312C34.023 37.8741 51.6669 23.5251 73.7749 14.3843C96.0955 5.0309 120.967 0.354203 148.389 0.354203C178.788 0.354203 204.829 5.13719 226.512 14.7032C248.407 24.2691 265.094 38.4055 276.573 57.1123C288.265 75.8191 294.111 98.6711 294.111 125.668C294.111 144.163 290.604 160.425 283.589 174.455C276.573 188.272 267.22 201.24 255.528 213.357C243.837 225.261 230.869 237.697 216.627 250.664C204.51 261.505 196.219 272.772 191.755 284.464C187.291 295.943 184.953 309.973 184.74 326.554ZM86.8484 424.127C86.8484 409.884 91.9502 397.873 102.154 388.095C112.57 378.316 126.069 373.427 142.65 373.427C159.231 373.427 172.623 378.316 182.827 388.095C193.031 397.873 198.133 409.884 198.133 424.127C198.133 438.582 193.031 450.699 182.827 460.477C172.623 470.043 159.231 474.826 142.65 474.826C126.069 474.826 112.57 470.043 102.154 460.477C91.9502 450.699 86.8484 438.582 86.8484 424.127Z" fill="#B2B2B3"/>
</svg>
