<svg width="295" height="475" viewBox="0 0 295 475" fill="none" xmlns="http://www.w3.org/2000/svg">
<path opacity="0.2" d="M184.755 326.554H98.3423C98.3423 307.634 99.7241 291.16 102.488 277.13C105.464 262.887 110.353 250.132 117.155 238.866C123.958 227.387 133.099 216.439 144.578 206.023C154.569 197.307 163.285 189.123 170.725 181.47C178.165 173.605 183.905 165.527 187.944 157.236C191.983 148.946 194.002 139.911 194.002 130.133C194.002 118.441 192.195 108.875 188.581 101.435C185.18 93.7819 180.078 88.0423 173.276 84.2159C166.686 80.1769 158.395 78.1574 148.404 78.1574C140.114 78.1574 132.355 80.0706 125.127 83.897C117.899 87.5108 112.054 93.2504 107.589 101.116C103.125 108.981 100.681 119.291 100.256 132.046H0.131668C0.769399 101.647 7.67816 76.7757 20.8579 57.4312C34.0377 37.8741 51.6816 23.5251 73.7896 14.3843C96.1102 5.0309 120.982 0.354203 148.404 0.354203C178.803 0.354203 204.843 5.13719 226.526 14.7032C248.422 24.2691 265.109 38.4055 276.588 57.1123C288.28 75.8191 294.126 98.6711 294.126 125.668C294.126 144.163 290.618 160.425 283.603 174.455C276.588 188.272 267.235 201.24 255.543 213.357C243.851 225.261 230.884 237.697 216.641 250.664C204.525 261.505 196.234 272.772 191.77 284.464C187.306 295.943 184.967 309.973 184.755 326.554ZM86.8631 424.127C86.8631 409.884 91.965 397.873 102.169 388.095C112.585 378.316 126.084 373.427 142.665 373.427C159.246 373.427 172.638 378.316 182.842 388.095C193.045 397.873 198.147 409.884 198.147 424.127C198.147 438.582 193.045 450.699 182.842 460.477C172.638 470.043 159.246 474.826 142.665 474.826C126.084 474.826 112.585 470.043 102.169 460.477C91.965 450.699 86.8631 438.582 86.8631 424.127Z" fill="#B2B2B3"/>
</svg>
